<svg width="36" height="36" viewBox="0 0 36 36" fill="none" xmlns="http://www.w3.org/2000/svg">
<rect width="36" height="36" rx="10" fill="white"/>
<path d="M30.3536 13.791C30.3536 13.791 29.2479 13.2596 28.1015 13.6138C27.2435 13.8671 26.3023 14.5172 25.768 15.8687C24.7366 18.462 25.6301 22.9842 25.2798 22.9842C24.9295 22.9842 23.8308 18.818 22.3607 14.4818C20.8905 10.1456 19.6168 5.634 17.3204 5.99712C15.2824 6.31773 15.9157 11.4581 16.7118 16.2708C17.4354 20.6336 18.2705 24.7183 17.7928 24.7183C16.9401 24.7183 14.1395 12.6591 11.2682 13.1161C8.39691 13.5731 12.0962 26.8634 11.3195 26.89C10.6897 26.8988 9.11518 18.7861 6.79761 19.1581C5.02848 19.4415 6.60478 25.7492 6.67731 27.5099C6.695 27.951 6.83122 28.7782 6.16957 28.7782H4.85156V30.0057H7.00283C7.44511 29.9845 7.79363 29.8162 7.97055 29.3804C8.56852 27.9085 6.99929 21.6521 7.36727 21.6078C7.61849 21.576 8.16338 23.4801 8.92234 25.6341C9.6813 27.788 10.442 30.0181 11.8839 30.0181C14.9922 30.0181 11.822 17.8137 12.4376 17.8137C12.7631 17.8137 13.653 20.2935 14.6296 23.0143C15.8255 26.3373 17.2833 30.0234 19.0436 30.0234C21.1435 30.0234 20.4589 25.2621 19.8096 20.7009C19.247 16.7526 18.5871 13.0417 18.9392 13.0417C19.7318 13.0417 22.7251 30.0181 26.3218 30.0181C28.1228 30.0181 28.144 26.4755 28.144 22.6423C28.144 19.9552 27.9193 17.5054 29.6053 16.9174C30.4067 16.6375 31.2188 17.1335 31.2188 17.1335L30.3536 13.791Z" fill="#5000B9"/>
</svg>
