<svg width="36" height="36" viewBox="0 0 36 36" fill="none" xmlns="http://www.w3.org/2000/svg">
<path d="M0 18C0 10.5005 0 6.7508 1.90983 4.12215C2.52663 3.2732 3.2732 2.52663 4.12215 1.90983C6.7508 0 10.5005 0 18 0V0C25.4995 0 29.2492 0 31.8779 1.90983C32.7268 2.52663 33.4734 3.2732 34.0902 4.12215C36 6.7508 36 10.5005 36 18V18C36 25.4995 36 29.2492 34.0902 31.8779C33.4734 32.7268 32.7268 33.4734 31.8779 34.0902C29.2492 36 25.4995 36 18 36V36C10.5005 36 6.7508 36 4.12215 34.0902C3.2732 33.4734 2.52663 32.7268 1.90983 31.8779C0 29.2492 0 25.4995 0 18V18Z" fill="url(#paint0_linear)"/>
<path d="M16.9008 31.6648C15.8268 31.2808 15.5964 30.7588 15.156 27.7C14.6436 24.1444 14.532 21.9436 14.8284 21.2464C15.222 20.3224 16.29 19.798 17.784 19.792C19.266 19.786 20.3436 20.3152 20.7396 21.2464C21.0372 21.9424 20.9256 24.1444 20.4132 27.7C20.0652 30.184 19.8732 30.8116 19.3932 31.234C18.7332 31.8184 17.7972 31.9804 16.9092 31.666L16.9008 31.6648ZM12.3132 28.0168C8.60517 26.1928 6.22917 23.1064 5.36517 19C5.14917 17.9404 5.11317 15.412 5.31717 14.44C5.85717 11.83 6.88917 9.7888 8.60517 7.984C11.0772 5.3776 14.2572 4 17.7972 4C21.3012 4 24.4692 5.3524 26.8812 7.8808C28.7172 9.7888 29.7492 11.8084 30.2772 14.4688C30.4572 15.3544 30.4572 17.7688 30.2892 18.7648C29.7372 21.9136 27.9852 24.7816 25.4292 26.7088C24.5172 27.3976 22.2852 28.6 21.9252 28.6C21.7932 28.6 21.7812 28.4632 21.8412 27.91C21.9492 27.022 22.0572 26.8372 22.5612 26.626C23.3652 26.29 24.7332 25.3156 25.5732 24.4732C27.0252 23.0332 28.0932 21.1492 28.5852 19.1692C28.8972 17.9332 28.8612 15.1852 28.5132 13.9132C27.4212 9.8692 24.1212 6.7252 20.0772 5.8852C18.9012 5.6452 16.7652 5.6452 15.5772 5.8852C11.4852 6.7252 8.10117 10.0252 7.06917 14.1772C6.79317 15.3052 6.79317 18.0532 7.06917 19.1812C7.75317 21.9292 9.52916 24.4492 11.8572 25.9492C12.3132 26.2492 12.8652 26.5612 13.0932 26.6572C13.5972 26.8732 13.7052 27.0532 13.8012 27.9412C13.8612 28.4812 13.8492 28.6372 13.7172 28.6372C13.6332 28.6372 13.0212 28.3732 12.3732 28.0612L12.3132 28.0168ZM12.3612 23.1352C11.1132 22.1392 10.0092 20.3728 9.55316 18.64C9.27717 17.5936 9.27716 15.604 9.56517 14.56C10.3212 11.7424 12.3972 9.5584 15.2772 8.5324C16.2612 8.1844 18.4452 8.1064 19.6572 8.374C23.8332 9.304 26.7972 13.486 26.2212 17.6344C25.9932 19.306 25.4172 20.6788 24.3972 21.9544C23.8932 22.5988 22.6692 23.68 22.4532 23.68C22.4172 23.68 22.3812 23.272 22.3812 22.7752V21.868L23.0052 21.124C25.3572 18.3064 25.1892 14.3704 22.6212 11.788C21.6252 10.7824 20.4732 10.192 18.9852 9.9196C18.0252 9.742 17.8212 9.742 16.8132 9.9076C15.2832 10.1572 14.0976 10.75 13.0452 11.7916C10.4652 14.3476 10.2972 18.304 12.6492 21.124L13.2684 21.868V22.78C13.2684 23.284 13.2288 23.692 13.1796 23.692C13.1316 23.692 12.7836 23.452 12.4116 23.152L12.3612 23.1352ZM16.5252 18.2356C15.4572 17.7388 14.8812 16.8016 14.8692 15.58C14.8692 14.482 15.4812 13.5244 16.5372 12.964C17.2092 12.6112 18.3972 12.6112 19.0692 12.9664C19.8012 13.3468 20.4012 14.0848 20.6292 14.8552C21.3252 17.2216 18.8172 19.2952 16.5492 18.2356H16.5252Z" fill="white"/>
<defs>
<linearGradient id="paint0_linear" x1="17.9628" y1="36.4572" x2="17.658" y2="-1.68752e-06" gradientUnits="userSpaceOnUse">
<stop stop-color="#822CBE"/>
<stop offset="1" stop-color="#D772FB"/>
</linearGradient>
</defs>
</svg>
