<svg width="36" height="36" viewBox="0 0 36 36" fill="none" xmlns="http://www.w3.org/2000/svg">
<rect width="36" height="36" rx="10" fill="url(#paint0_linear)"/>
<path d="M15.8267 24.08C16.7466 26.8927 18.2227 29.4515 20.1328 31.6239C23.7094 31.1609 26.8546 29.3223 29.0204 26.6562C27.2546 27.1222 25.4004 27.3704 23.4882 27.3704C21.9587 27.3704 20.4662 27.2078 19.0265 26.9058C17.5246 26.6008 16.3085 25.5093 15.8267 24.08Z" fill="#1269FF"/>
<path d="M18.3516 31.7384C18.9553 31.7384 19.5498 31.6995 20.1329 31.624C18.2227 29.4516 16.7467 26.8928 15.8268 24.08C15.682 23.6506 15.6035 23.1906 15.6035 22.7124C15.6035 21.6387 15.9989 20.6575 16.652 19.9062C14.1526 22.7002 12.3679 26.1477 11.588 29.9609C13.5847 31.0924 15.8927 31.7384 18.3516 31.7384Z" fill="#5C9DFF"/>
<path d="M4.99451 21.2279C5.89517 24.9683 8.32619 28.1125 11.588 29.961C12.369 26.1426 14.1564 22.6909 16.6611 19.895C17.4454 18.999 18.5983 18.4331 19.8827 18.4331C20.1678 18.4331 20.4463 18.461 20.7157 18.5142C19.2831 18.2153 17.7985 18.0542 16.2771 18.0542C12.1425 18.0542 8.27901 19.2147 4.99451 21.2279Z" fill="#9EC6FF"/>
<path d="M20.7157 18.5141C19.2831 18.2152 17.7984 18.0542 16.2771 18.0542C12.1425 18.0542 8.27897 19.2147 4.99446 21.2278C4.74521 20.1926 4.61316 19.1117 4.61316 17.9999C4.61316 13.7156 6.57432 9.88926 9.64789 7.36975C16.3847 9.40365 21.7282 14.6471 23.9237 21.3124C23.9442 21.371 23.9634 21.4302 23.9814 21.4899C23.9624 21.4306 23.9432 21.3714 23.9237 21.3124C23.4296 19.8962 22.2129 18.8096 20.7157 18.5141Z" fill="#D1E3FF"/>
<path d="M31.4129 15.5217C31.4129 9.44163 26.3469 4.2616 18.3509 4.2616C15.0476 4.2616 12.0166 5.42741 9.64685 7.37004C16.4442 9.42331 21.8246 14.7353 23.9807 21.49C24.1064 21.8852 24.2211 22.3058 24.3243 22.7105C28.2305 22.6242 31.4129 19.4475 31.4129 15.5217Z" fill="white"/>
<path fill-rule="evenodd" clip-rule="evenodd" d="M23.6652 22.8776C23.5647 22.4835 23.4046 21.9102 23.2828 21.5265C22.8638 20.3353 21.8383 19.4244 20.5849 19.1771C20.3471 19.1294 20.1341 19.108 19.8827 19.1088C18.8011 19.1088 17.8309 19.5845 17.1694 20.34C16.5871 20.9999 16.2666 21.7729 16.2792 22.7123C16.2767 23.1336 16.3371 23.4853 16.467 23.8642C16.8727 25.0678 17.9022 25.9881 19.1653 26.2446C20.5723 26.5406 21.9954 26.6958 23.4883 26.6948C25.3555 26.6963 27.1234 26.4595 28.8481 26.0029L29.4046 25.8561L29.6933 26.8995L29.5449 27.0823C27.2736 29.8782 23.9739 31.808 20.2196 32.2941C19.6153 32.3719 18.9773 32.4137 18.3516 32.4141C15.8008 32.4078 13.3252 31.7163 11.2549 30.5488C7.83373 28.6101 5.28296 25.3121 4.33761 21.386C4.08034 20.3129 3.93877 19.1528 3.9375 18C3.9375 13.5047 5.99614 9.48959 9.21955 6.84728C11.6778 4.84316 14.9249 3.59729 18.3516 3.58594C26.6556 3.58594 32.0893 9.00689 32.0893 15.5217C32.0893 19.8248 28.6022 23.2948 24.3343 23.3861L23.7979 23.3976L23.6652 22.8776ZM24.5676 21.1076C22.4754 14.5528 17.494 9.47886 11.0844 7.13679C13.1677 5.72386 15.6252 4.92754 18.3516 4.93727C26.0368 4.93727 30.738 9.87458 30.738 15.5217C30.738 18.8968 28.1346 21.6702 24.8303 22.0032C24.7436 21.6896 24.6473 21.3585 24.5676 21.1076ZM5.28884 18C5.28884 14.0562 7.03578 10.521 9.80037 8.12486C15.0576 9.80972 19.366 13.4067 21.8808 18.1782C21.5544 18.0335 21.2093 17.9231 20.85 17.852C19.386 17.5476 17.8336 17.3795 16.2771 17.3785C12.3853 17.3852 8.6554 18.4105 5.4669 20.172C5.34786 19.4671 5.28796 18.7505 5.28884 18ZM16.9212 18.7392C16.6413 18.9481 16.3843 19.1857 16.1547 19.4477C13.8086 22.0786 12.0352 25.3492 11.1399 28.8934C8.56603 27.1859 6.63282 24.591 5.77603 21.5472C8.88177 19.7356 12.4193 18.723 16.2771 18.7298C16.4932 18.7297 16.7079 18.7328 16.9212 18.7392ZM18.3516 31.0627C16.161 31.0686 14.1644 30.5547 12.3546 29.6097C12.8756 27.3191 13.7628 25.1943 14.9625 23.2714C15.0039 23.6258 15.0808 23.9766 15.1845 24.2901C15.9901 26.7432 17.2309 29.0505 18.7883 31.056C18.6442 31.0606 18.4989 31.0629 18.3516 31.0627ZM20.402 30.9028C19.4424 29.7759 18.6101 28.5611 17.9129 27.26C18.2233 27.3947 18.5503 27.4984 18.89 27.5676C20.3618 27.8754 21.9229 28.0451 23.4883 28.0461C24.6837 28.0452 25.8729 27.948 27.0292 27.7641C25.2045 29.3871 22.9226 30.5056 20.402 30.9028Z" fill="#003DAD"/>
<defs>
<linearGradient id="paint0_linear" x1="17.9998" y1="-5.6597e-05" x2="17.9998" y2="36" gradientUnits="userSpaceOnUse">
<stop stop-color="#FF40C0"/>
<stop offset="1" stop-color="#FF7066"/>
</linearGradient>
</defs>
</svg>
