<svg width="36" height="36" viewBox="0 0 36 36" fill="none" xmlns="http://www.w3.org/2000/svg">
<rect width="36" height="36" rx="10" fill="white"/>
<path d="M5.51978 17.0286V18.9709V17.0286Z" fill="black"/>
<path d="M5.51978 17.0286V18.9709" stroke="#0066D9" stroke-width="3" stroke-linecap="round"/>
<path d="M30.4803 17.0286V18.9709V17.0286Z" fill="black"/>
<path d="M30.4803 17.0286V18.9709" stroke="#4285F4" stroke-width="3" stroke-linecap="round"/>
<path d="M11.7599 22.8557V24.798V22.8557Z" fill="black"/>
<path d="M11.7599 11.2017V17.5547M11.7599 22.8557V24.798" stroke="#EA4335" stroke-width="3" stroke-linecap="round"/>
<path d="M24.2402 11.201V13.1434V11.201Z" fill="black"/>
<path d="M24.2402 18.4446V24.7977M24.2402 11.201V13.1434" stroke="#34A853" stroke-width="3" stroke-linecap="round"/>
<path d="M18 28.5374V30.4798V28.5374Z" fill="black"/>
<path d="M19.5 12.8202C19.5 11.9917 18.8284 11.3202 18 11.3202C17.1716 11.3202 16.5 11.9917 16.5 12.8202H19.5ZM16.5 23.1792C16.5 24.0076 17.1716 24.6792 18 24.6792C18.8284 24.6792 19.5 24.0076 19.5 23.1792H16.5ZM19.5 5.51904C19.5 4.69062 18.8284 4.01904 18 4.01904C17.1716 4.01904 16.5 4.69062 16.5 5.51904H19.5ZM16.5 7.46139C16.5 8.28982 17.1716 8.96139 18 8.96139C18.8284 8.96139 19.5 8.28982 19.5 7.46139H16.5ZM19.5 28.5374C19.5 27.709 18.8284 27.0374 18 27.0374C17.1716 27.0374 16.5 27.709 16.5 28.5374H19.5ZM16.5 30.4798C16.5 31.3082 17.1716 31.9798 18 31.9798C18.8284 31.9798 19.5 31.3082 19.5 30.4798H16.5ZM16.5 12.8202V23.1792H19.5V12.8202H16.5ZM16.5 5.51904V7.46139H19.5V5.51904H16.5ZM16.5 28.5374V30.4798H19.5V28.5374H16.5Z" fill="#FAB908"/>
</svg>
