<svg width="36" height="36" viewBox="0 0 36 36" fill="none" xmlns="http://www.w3.org/2000/svg">
<rect width="36" height="36" rx="10" fill="#F43E37"/>
<path fill-rule="evenodd" clip-rule="evenodd" d="M3.86719 18.0339C3.86719 10.2097 10.2097 3.86719 18.0339 3.86719C25.858 3.86719 32.2005 10.2097 32.2005 18.0339H28.6589C28.6589 12.1655 23.9014 7.40885 18.0339 7.40885C12.1664 7.40885 7.40885 12.1655 7.40885 18.0339C7.40885 23.9022 12.1655 28.6589 18.0339 28.6589V32.2005C10.2097 32.2005 3.86719 25.858 3.86719 18.0339ZM18.0339 26.5339C13.3397 26.5339 9.53385 22.728 9.53385 18.0339C9.53385 13.3397 13.3397 9.53385 18.0339 9.53385C22.728 9.53385 26.5339 13.3397 26.5339 18.0339H23.4422C23.442 16.9642 23.1247 15.9187 22.5303 15.0294C21.9359 14.1401 21.0912 13.447 20.103 13.0378C19.1147 12.6286 18.0273 12.5216 16.9782 12.7304C15.9292 12.9392 14.9656 13.4543 14.2093 14.2107C13.453 14.9671 12.938 15.9308 12.7294 16.9799C12.5208 18.029 12.6279 19.1164 13.0373 20.1046C13.4467 21.0928 14.1399 21.9374 15.0292 22.5316C15.9186 23.1258 16.9642 23.443 18.0339 23.443V26.5339Z" fill="white"/>
</svg>
