<svg width="36" height="36" viewBox="0 0 36 36" fill="none" xmlns="http://www.w3.org/2000/svg">
<rect width="36" height="36" rx="10" fill="#CE262F"/>
<mask id="mask0" mask-type="alpha" maskUnits="userSpaceOnUse" x="16" y="9" width="12" height="20">
<path d="M27.6531 28.8269V9.90442H16.5133V28.8269H27.6531Z" fill="white"/>
</mask>
<g mask="url(#mask0)">
<path fill-rule="evenodd" clip-rule="evenodd" d="M27.6533 28.3103C23.9398 26.5215 20.2266 30.0992 16.5135 28.3103C16.5131 22.3471 16.5131 16.3838 16.5135 10.4206C20.2266 12.2094 23.9398 8.63171 27.6533 10.4206V28.3103Z" fill="white"/>
</g>
<path fill-rule="evenodd" clip-rule="evenodd" d="M21.6283 18.7166C21.7565 18.6864 21.8852 18.6554 22.0134 18.6245C22.4932 18.5092 22.5382 18.2009 22.5385 17.8404C22.5382 17.1922 22.5382 16.5443 22.5385 15.8961C22.5374 15.4729 22.4936 15.2166 22.0134 15.3318C21.8852 15.3628 21.7565 15.3937 21.6283 15.4239V18.7166ZM21.6283 20.6137V25.2861C20.9441 25.4474 20.2603 25.594 19.5765 25.6584V13.9934C20.5488 13.9017 21.5203 13.6446 22.4921 13.4141C24.2358 13.0038 24.6058 13.9087 24.6055 15.334V17.6698C24.6062 19.1195 24.0347 20.0403 22.6001 20.3813C22.2762 20.4576 21.9522 20.5371 21.6283 20.6137Z" fill="#CE262F"/>
<path fill-rule="evenodd" clip-rule="evenodd" d="M19.5876 25.6686C19.5876 25.6686 19.4151 26.6627 16.5133 28.3101V18.6454L19.5876 25.6686Z" fill="#E7E7E7"/>
<path fill-rule="evenodd" clip-rule="evenodd" d="M19.5773 25.6483C15.8174 23.8595 12.0571 27.4372 8.29688 25.6483V7.75859C12.0571 9.54745 15.8174 5.96972 19.5773 7.75859V25.6483Z" fill="white"/>
<path fill-rule="evenodd" clip-rule="evenodd" d="M13.4531 15.715C13.5868 15.6841 13.7205 15.6521 13.8542 15.6204C14.2717 15.5213 14.4249 15.329 14.4249 14.7803V13.1966C14.4246 12.6949 14.3322 12.559 13.9158 12.6581C13.7618 12.6949 13.6075 12.7318 13.4531 12.7675V15.715ZM13.4531 22.6292C12.7693 22.7884 12.0855 22.9324 11.4014 22.9965V11.3315C12.4812 11.2302 13.5614 10.9304 14.6409 10.6854C15.8907 10.3971 16.5227 11.0578 16.5227 12.3086V14.1744C16.5234 15.1434 15.9973 15.6196 15.6128 15.8646C15.9364 15.9279 16.493 16.2583 16.4922 17.1245V21.0912C16.4915 21.5932 16.585 21.8042 16.6615 21.9398V22.0182C15.9777 22.0672 15.2943 22.2016 14.6101 22.3574C14.5029 22.2562 14.4257 22.0238 14.4249 21.5063V18.1039C14.4242 17.5551 14.3021 17.4424 13.885 17.5415C13.7412 17.5757 13.5969 17.61 13.4531 17.6435V22.6292Z" fill="#CE262F"/>
</svg>
