<svg width="36" height="36" viewBox="0 0 36 36" fill="none" xmlns="http://www.w3.org/2000/svg">
<rect width="36" height="36" rx="10" fill="white"/>
<g clip-path="url(#clip0)">
<path d="M11.019 28.0547C12.7165 28.0547 14.0926 26.6785 14.0926 24.981C14.0926 23.2835 12.7165 21.9073 11.019 21.9073C9.32144 21.9073 7.94531 23.2835 7.94531 24.981C7.94531 26.6785 9.32144 28.0547 11.019 28.0547Z" fill="#121826"/>
<path d="M7.94531 13.7114V17.8102C13.5947 17.8102 18.1914 22.4053 18.1914 28.0547H22.2886C22.2886 20.1461 15.8538 13.7114 7.94531 13.7114Z" fill="#121826"/>
<path d="M7.94531 6.53906V10.6378C17.5505 10.6378 25.3637 18.4495 25.3637 28.0547H29.4609C29.4609 16.1904 19.8096 6.53906 7.94531 6.53906Z" fill="#121826"/>
</g>
<defs>
<clipPath id="clip0">
<rect width="21.5156" height="21.5156" fill="white" transform="translate(7.94531 6.53906)"/>
</clipPath>
</defs>
</svg>
