<svg width="36" height="36" viewBox="0 0 36 36" fill="none" xmlns="http://www.w3.org/2000/svg">
<rect width="36" height="36" rx="10" fill="white"/>
<g clip-path="url(#clip0)">
<path d="M3.44531 23.194C3.44531 23.5541 3.57595 23.8264 3.83719 24.011C4.09844 24.1956 4.3777 24.2609 4.67498 24.2069C4.95423 24.1528 5.15017 24.0538 5.26281 23.9098C5.3754 23.7657 5.43173 23.5271 5.43173 23.194V19.2775C5.43173 18.9984 5.3349 18.7621 5.1412 18.5685C4.94754 18.3749 4.71107 18.2782 4.43178 18.2782C4.16152 18.2782 3.92956 18.3749 3.73587 18.5685C3.54218 18.7621 3.44531 18.9984 3.44531 19.2775V23.194ZM6.55326 24.8686C6.55326 25.1297 6.64561 25.3255 6.83027 25.4561C7.01496 25.5867 7.25145 25.6519 7.5397 25.6519C7.83698 25.6519 8.07794 25.5866 8.26263 25.4561C8.4473 25.3256 8.53965 25.1297 8.53965 24.8686V15.7392C8.53965 15.4691 8.44278 15.2373 8.24912 15.0437C8.05543 14.8502 7.81896 14.7534 7.5397 14.7534C7.26945 14.7534 7.03745 14.8502 6.84379 15.0437C6.65009 15.2373 6.55326 15.4691 6.55326 15.7392V24.8686ZM9.6477 25.3008C9.6477 25.5619 9.74229 25.7577 9.93147 25.8883C10.1206 26.0188 10.3639 26.0841 10.6612 26.0841C10.9494 26.0841 11.1859 26.0188 11.3706 25.8883C11.5553 25.7577 11.6476 25.5619 11.6476 25.3008V16.9682C11.6476 16.6891 11.5508 16.4505 11.3571 16.2524C11.1634 16.0543 10.9315 15.9553 10.6612 15.9553C10.3819 15.9553 10.1432 16.0543 9.945 16.2524C9.74683 16.4505 9.64773 16.6891 9.64773 16.9682V25.3008H9.6477ZM12.7557 25.3413C12.7557 25.8365 13.089 26.0841 13.7556 26.0841C14.4222 26.0841 14.7555 25.8365 14.7555 25.3413V11.8363C14.7555 11.08 14.5258 10.6523 14.0664 10.5533C13.7691 10.4813 13.4763 10.5668 13.188 10.8099C12.8998 11.053 12.7556 11.3951 12.7556 11.8363V25.3413H12.7557ZM15.9177 25.7329V11.0395C15.9177 10.5713 16.0573 10.2922 16.3366 10.2022C16.9401 10.0581 17.5392 9.98608 18.1338 9.98608C19.5121 9.98608 20.7958 10.3102 21.9849 10.9584C23.174 11.6067 24.1357 12.4913 24.8699 13.6122C25.6041 14.7331 26.0298 15.9688 26.1469 17.3193C26.6964 17.0852 27.2819 16.9682 27.9035 16.9682C29.1647 16.9682 30.2435 17.4139 31.1398 18.3052C32.0362 19.1966 32.4844 20.2679 32.4844 21.5194C32.4844 22.7799 32.0362 23.8558 31.1398 24.7471C30.2435 25.6384 29.1692 26.0841 27.917 26.0841L16.1609 26.0706C16.0797 26.0436 16.0189 25.9941 15.9784 25.9221C15.9379 25.85 15.9177 25.7869 15.9177 25.7329Z" fill="url(#paint0_linear)"/>
</g>
<defs>
<linearGradient id="paint0_linear" x1="17.9959" y1="10.4241" x2="17.9959" y2="25.7628" gradientUnits="userSpaceOnUse">
<stop stop-color="#FF8800"/>
<stop offset="1" stop-color="#FF3300"/>
</linearGradient>
<clipPath id="clip0">
<rect width="29.0391" height="16.1016" fill="white" transform="translate(3.44531 9.98438)"/>
</clipPath>
</defs>
</svg>
