<svg width="36" height="36" viewBox="0 0 36 36" fill="none" xmlns="http://www.w3.org/2000/svg">
<rect width="36" height="36" rx="10" fill="#1ED760"/>
<path d="M25.6647 25.7058C25.3524 26.2182 24.6821 26.3807 24.17 26.0661C20.077 23.5645 14.9244 22.998 8.8562 24.3852C8.27145 24.5185 7.68857 24.1519 7.55534 23.5666C7.42149 22.9813 7.78641 22.3981 8.37262 22.2648C15.0133 20.7461 20.7094 21.4003 25.3046 24.2102C25.8167 24.5248 25.979 25.1934 25.6647 25.7058ZM27.7984 20.9556C27.405 21.5961 26.5682 21.7982 25.9291 21.4045C21.2432 18.5219 14.1002 17.6873 8.55768 19.3707C7.83887 19.588 7.07967 19.1826 6.86151 18.4646C6.64501 17.7454 7.05032 16.9872 7.76788 16.7685C14.099 14.8463 21.9697 15.7774 27.3509 19.0862C27.99 19.4799 28.1919 20.317 27.7984 20.9556ZM27.9816 16.0099C22.3631 12.6707 13.0933 12.3637 7.72895 13.9927C6.86755 14.2542 5.95659 13.7676 5.69555 12.9057C5.4345 12.0433 5.92037 11.1324 6.7824 10.8704C12.9403 8.99992 23.1771 9.36131 29.6458 13.2037C30.4222 13.6639 30.6762 14.6651 30.2161 15.4394C29.7582 16.2146 28.7548 16.4702 27.9825 16.0099H27.9816Z" fill="white"/>
</svg>
